<?xml version="1.0" encoding="UTF-8" standalone="no"?>
<!-- Created with Inkscape (http://www.inkscape.org/) -->

<svg
   xmlns:dc="http://purl.org/dc/elements/1.1/"
   xmlns:cc="http://creativecommons.org/ns#"
   xmlns:rdf="http://www.w3.org/1999/02/22-rdf-syntax-ns#"
   xmlns:svg="http://www.w3.org/2000/svg"
   xmlns="http://www.w3.org/2000/svg"
   xmlns:sodipodi="http://sodipodi.sourceforge.net/DTD/sodipodi-0.dtd"
   xmlns:inkscape="http://www.inkscape.org/namespaces/inkscape"
   width="176.43396mm"
   height="59.286373mm"
   viewBox="0 0 176.43396 59.286373"
   version="1.1"
   id="svg8"
   sodipodi:docname="formations-example.svg"
   inkscape:version="0.92.2 (5c3e80d, 2017-08-06)">
  <defs
     id="defs2" />
  <sodipodi:namedview
     id="base"
     pagecolor="#ffffff"
     bordercolor="#666666"
     borderopacity="1.0"
     inkscape:pageopacity="0.0"
     inkscape:pageshadow="2"
     inkscape:zoom="1.4"
     inkscape:cx="264.19279"
     inkscape:cy="88.401118"
     inkscape:document-units="mm"
     inkscape:current-layer="layer1"
     showgrid="false"
     fit-margin-top="0"
     fit-margin-left="0"
     fit-margin-right="0"
     fit-margin-bottom="0"
     inkscape:window-width="3840"
     inkscape:window-height="2035"
     inkscape:window-x="-13"
     inkscape:window-y="-13"
     inkscape:window-maximized="1" />
  <metadata
     id="metadata5">
    <rdf:RDF>
      <cc:Work
         rdf:about="">
        <dc:format>image/svg+xml</dc:format>
        <dc:type
           rdf:resource="http://purl.org/dc/dcmitype/StillImage" />
        <dc:title></dc:title>
      </cc:Work>
    </rdf:RDF>
  </metadata>
  <g
     inkscape:label="Layer 1"
     inkscape:groupmode="layer"
     id="layer1"
     transform="translate(-4.8582006,-4.267888)">
    <g
       id="g913"
       transform="translate(-39.288621,-15.367998)"
       style="stroke:#00aad4">
      <g
         transform="translate(-3.2072332,-2.7806812e-5)"
         id="g835"
         style="stroke:#ff2a2a">
        <path
           style="fill:none;fill-rule:evenodd;stroke:#ff2a2a;stroke-width:1;stroke-linecap:butt;stroke-linejoin:miter;stroke-miterlimit:4;stroke-dasharray:none;stroke-opacity:1"
           d="m 76.272042,19.925021 c 0.546963,0.771788 3.229092,2.099729 3.908814,2.722808 0.162534,0.148988 0.311817,0.311815 0.467723,0.467722 0.04454,0.04454 0.09178,0.08655 0.133636,0.133635 0.136421,0.153474 0.241977,0.337691 0.400904,0.467721 0.754034,0.305974 1.335735,2.547029 1.870885,2.672698 0.691853,0.593018 -0.107098,0.0398 0.133635,0.400904 0.06989,0.104833 0.178181,0.178181 0.267269,0.267269"
           id="path829"
           inkscape:connector-curvature="0"
           sodipodi:nodetypes="cccccccc" />
        <path
           style="fill:none;fill-rule:evenodd;stroke:#ff2a2a;stroke-width:1;stroke-linecap:butt;stroke-linejoin:miter;stroke-miterlimit:4;stroke-dasharray:none;stroke-opacity:1"
           d="m 83.120822,20.041952 c -0.178179,0.244997 -0.31582,0.525386 -0.534538,0.734991 -0.321609,0.308208 -0.746128,0.495005 -1.069078,0.801808 -0.130186,0.123677 -0.134403,0.346932 -0.267272,0.467722 -0.125507,0.1141 -0.338079,0.09107 -0.467719,0.200452 -0.589929,0.497752 -1.117222,1.065355 -1.670437,1.603617 -0.270904,0.263584 -0.492156,0.585054 -0.801806,0.801809 -0.367202,0.25704 -0.842539,0.334561 -1.202714,0.601356 -0.254368,0.18842 -0.397455,0.492858 -0.601356,0.734991 -0.152505,0.1811 -0.300307,0.367125 -0.467722,0.53454"
           id="path831"
           inkscape:connector-curvature="0"
           sodipodi:nodetypes="ccsccccssc" />
      </g>
      <g
         transform="translate(0,1.7372334)"
         id="g875"
         style="stroke:#00aad4">
        <g
           id="g841"
           transform="translate(-17.372518,17.506154)"
           style="stroke:#00aad4">
          <path
             style="fill:none;fill-rule:evenodd;stroke:#00aad4;stroke-width:1;stroke-linecap:butt;stroke-linejoin:miter;stroke-miterlimit:4;stroke-dasharray:none;stroke-opacity:1"
             d="m 76.272042,19.925021 c 0.546963,0.771788 3.229092,2.099729 3.908814,2.722808 0.162534,0.148988 0.311817,0.311815 0.467723,0.467722 0.04454,0.04454 0.09178,0.08655 0.133636,0.133635 0.136421,0.153474 0.241977,0.337691 0.400904,0.467721 0.754034,0.305974 1.335735,2.547029 1.870885,2.672698 0.691853,0.593018 -0.107098,0.0398 0.133635,0.400904 0.06989,0.104833 0.178181,0.178181 0.267269,0.267269"
             id="path837"
             inkscape:connector-curvature="0"
             sodipodi:nodetypes="cccccccc" />
          <path
             style="fill:none;fill-rule:evenodd;stroke:#00aad4;stroke-width:1;stroke-linecap:butt;stroke-linejoin:miter;stroke-miterlimit:4;stroke-dasharray:none;stroke-opacity:1"
             d="m 83.120822,20.041952 c -0.178179,0.244997 -0.31582,0.525386 -0.534538,0.734991 -0.321609,0.308208 -0.746128,0.495005 -1.069078,0.801808 -0.130186,0.123677 -0.134403,0.346932 -0.267272,0.467722 -0.125507,0.1141 -0.338079,0.09107 -0.467719,0.200452 -0.589929,0.497752 -1.117222,1.065355 -1.670437,1.603617 -0.270904,0.263584 -0.492156,0.585054 -0.801806,0.801809 -0.367202,0.25704 -0.842539,0.334561 -1.202714,0.601356 -0.254368,0.18842 -0.397455,0.492858 -0.601356,0.734991 -0.152505,0.1811 -0.300307,0.367125 -0.467722,0.53454"
             id="path839"
             inkscape:connector-curvature="0"
             sodipodi:nodetypes="ccsccccssc" />
        </g>
        <g
           transform="translate(10.958049,16.971615)"
           id="g847"
           style="stroke:#00aad4">
          <path
             sodipodi:nodetypes="cccccccc"
             inkscape:connector-curvature="0"
             id="path843"
             d="m 76.272042,19.925021 c 0.546963,0.771788 3.229092,2.099729 3.908814,2.722808 0.162534,0.148988 0.311817,0.311815 0.467723,0.467722 0.04454,0.04454 0.09178,0.08655 0.133636,0.133635 0.136421,0.153474 0.241977,0.337691 0.400904,0.467721 0.754034,0.305974 1.335735,2.547029 1.870885,2.672698 0.691853,0.593018 -0.107098,0.0398 0.133635,0.400904 0.06989,0.104833 0.178181,0.178181 0.267269,0.267269"
             style="fill:none;fill-rule:evenodd;stroke:#00aad4;stroke-width:1;stroke-linecap:butt;stroke-linejoin:miter;stroke-miterlimit:4;stroke-dasharray:none;stroke-opacity:1" />
          <path
             sodipodi:nodetypes="ccsccccssc"
             inkscape:connector-curvature="0"
             id="path845"
             d="m 83.120822,20.041952 c -0.178179,0.244997 -0.31582,0.525386 -0.534538,0.734991 -0.321609,0.308208 -0.746128,0.495005 -1.069078,0.801808 -0.130186,0.123677 -0.134403,0.346932 -0.267272,0.467722 -0.125507,0.1141 -0.338079,0.09107 -0.467719,0.200452 -0.589929,0.497752 -1.117222,1.065355 -1.670437,1.603617 -0.270904,0.263584 -0.492156,0.585054 -0.801806,0.801809 -0.367202,0.25704 -0.842539,0.334561 -1.202714,0.601356 -0.254368,0.18842 -0.397455,0.492858 -0.601356,0.734991 -0.152505,0.1811 -0.300307,0.367125 -0.467722,0.53454"
             style="fill:none;fill-rule:evenodd;stroke:#00aad4;stroke-width:1;stroke-linecap:butt;stroke-linejoin:miter;stroke-miterlimit:4;stroke-dasharray:none;stroke-opacity:1" />
        </g>
      </g>
      <g
         transform="translate(0,-7.1438077e-6)"
         id="g867"
         style="stroke:#00aad4">
        <g
           id="g853"
           transform="translate(-31.537805,39.154986)"
           style="stroke:#00aad4">
          <path
             style="fill:none;fill-rule:evenodd;stroke:#00aad4;stroke-width:1;stroke-linecap:butt;stroke-linejoin:miter;stroke-miterlimit:4;stroke-dasharray:none;stroke-opacity:1"
             d="m 76.272042,19.925021 c 0.546963,0.771788 3.229092,2.099729 3.908814,2.722808 0.162534,0.148988 0.311817,0.311815 0.467723,0.467722 0.04454,0.04454 0.09178,0.08655 0.133636,0.133635 0.136421,0.153474 0.241977,0.337691 0.400904,0.467721 0.754034,0.305974 1.335735,2.547029 1.870885,2.672698 0.691853,0.593018 -0.107098,0.0398 0.133635,0.400904 0.06989,0.104833 0.178181,0.178181 0.267269,0.267269"
             id="path849"
             inkscape:connector-curvature="0"
             sodipodi:nodetypes="cccccccc" />
          <path
             style="fill:none;fill-rule:evenodd;stroke:#00aad4;stroke-width:1;stroke-linecap:butt;stroke-linejoin:miter;stroke-miterlimit:4;stroke-dasharray:none;stroke-opacity:1"
             d="m 83.120822,20.041952 c -0.178179,0.244997 -0.31582,0.525386 -0.534538,0.734991 -0.321609,0.308208 -0.746128,0.495005 -1.069078,0.801808 -0.130186,0.123677 -0.134403,0.346932 -0.267272,0.467722 -0.125507,0.1141 -0.338079,0.09107 -0.467719,0.200452 -0.589929,0.497752 -1.117222,1.065355 -1.670437,1.603617 -0.270904,0.263584 -0.492156,0.585054 -0.801806,0.801809 -0.367202,0.25704 -0.842539,0.334561 -1.202714,0.601356 -0.254368,0.18842 -0.397455,0.492858 -0.601356,0.734991 -0.152505,0.1811 -0.300307,0.367125 -0.467722,0.53454"
             id="path851"
             inkscape:connector-curvature="0"
             sodipodi:nodetypes="ccsccccssc" />
        </g>
        <g
           transform="translate(25.123335,37.952273)"
           id="g859"
           style="stroke:#00aad4">
          <path
             sodipodi:nodetypes="cccccccc"
             inkscape:connector-curvature="0"
             id="path855"
             d="m 76.272042,19.925021 c 0.546963,0.771788 3.229092,2.099729 3.908814,2.722808 0.162534,0.148988 0.311817,0.311815 0.467723,0.467722 0.04454,0.04454 0.09178,0.08655 0.133636,0.133635 0.136421,0.153474 0.241977,0.337691 0.400904,0.467721 0.754034,0.305974 1.335735,2.547029 1.870885,2.672698 0.691853,0.593018 -0.107098,0.0398 0.133635,0.400904 0.06989,0.104833 0.178181,0.178181 0.267269,0.267269"
             style="fill:none;fill-rule:evenodd;stroke:#00aad4;stroke-width:1;stroke-linecap:butt;stroke-linejoin:miter;stroke-miterlimit:4;stroke-dasharray:none;stroke-opacity:1" />
          <path
             sodipodi:nodetypes="ccsccccssc"
             inkscape:connector-curvature="0"
             id="path857"
             d="m 83.120822,20.041952 c -0.178179,0.244997 -0.31582,0.525386 -0.534538,0.734991 -0.321609,0.308208 -0.746128,0.495005 -1.069078,0.801808 -0.130186,0.123677 -0.134403,0.346932 -0.267272,0.467722 -0.125507,0.1141 -0.338079,0.09107 -0.467719,0.200452 -0.589929,0.497752 -1.117222,1.065355 -1.670437,1.603617 -0.270904,0.263584 -0.492156,0.585054 -0.801806,0.801809 -0.367202,0.25704 -0.842539,0.334561 -1.202714,0.601356 -0.254368,0.18842 -0.397455,0.492858 -0.601356,0.734991 -0.152505,0.1811 -0.300307,0.367125 -0.467722,0.53454"
             style="fill:none;fill-rule:evenodd;stroke:#00aad4;stroke-width:1;stroke-linecap:butt;stroke-linejoin:miter;stroke-miterlimit:4;stroke-dasharray:none;stroke-opacity:1" />
        </g>
      </g>
    </g>
    <g
       transform="translate(60.166357,-15.100728)"
       id="g949"
       style="stroke:#00aad4">
      <g
         id="g919"
         transform="translate(8.9535303,19.310206)"
         style="stroke:#ff2a2a;stroke-opacity:1">
        <path
           sodipodi:nodetypes="cccccccc"
           inkscape:connector-curvature="0"
           id="path915"
           d="m 76.272042,19.925021 c 0.546963,0.771788 3.229092,2.099729 3.908814,2.722808 0.162534,0.148988 0.311817,0.311815 0.467723,0.467722 0.04454,0.04454 0.09178,0.08655 0.133636,0.133635 0.136421,0.153474 0.241977,0.337691 0.400904,0.467721 0.754034,0.305974 1.335735,2.547029 1.870885,2.672698 0.691853,0.593018 -0.107098,0.0398 0.133635,0.400904 0.06989,0.104833 0.178181,0.178181 0.267269,0.267269"
           style="fill:none;fill-rule:evenodd;stroke:#ff2a2a;stroke-width:1;stroke-linecap:butt;stroke-linejoin:miter;stroke-miterlimit:4;stroke-dasharray:none;stroke-opacity:1" />
        <path
           sodipodi:nodetypes="ccsccccssc"
           inkscape:connector-curvature="0"
           id="path917"
           d="m 83.120822,20.041952 c -0.178179,0.244997 -0.31582,0.525386 -0.534538,0.734991 -0.321609,0.308208 -0.746128,0.495005 -1.069078,0.801808 -0.130186,0.123677 -0.134403,0.346932 -0.267272,0.467722 -0.125507,0.1141 -0.338079,0.09107 -0.467719,0.200452 -0.589929,0.497752 -1.117222,1.065355 -1.670437,1.603617 -0.270904,0.263584 -0.492156,0.585054 -0.801806,0.801809 -0.367202,0.25704 -0.842539,0.334561 -1.202714,0.601356 -0.254368,0.18842 -0.397455,0.492858 -0.601356,0.734991 -0.152505,0.1811 -0.300307,0.367125 -0.467722,0.53454"
           style="fill:none;fill-rule:evenodd;stroke:#ff2a2a;stroke-width:1;stroke-linecap:butt;stroke-linejoin:miter;stroke-miterlimit:4;stroke-dasharray:none;stroke-opacity:1" />
      </g>
      <g
         id="g925"
         transform="translate(-5.2117545,19.310206)"
         style="stroke:#00aad4">
        <path
           style="fill:none;fill-rule:evenodd;stroke:#00aad4;stroke-width:1;stroke-linecap:butt;stroke-linejoin:miter;stroke-miterlimit:4;stroke-dasharray:none;stroke-opacity:1"
           d="m 76.272042,19.925021 c 0.546963,0.771788 3.229092,2.099729 3.908814,2.722808 0.162534,0.148988 0.311817,0.311815 0.467723,0.467722 0.04454,0.04454 0.09178,0.08655 0.133636,0.133635 0.136421,0.153474 0.241977,0.337691 0.400904,0.467721 0.754034,0.305974 1.335735,2.547029 1.870885,2.672698 0.691853,0.593018 -0.107098,0.0398 0.133635,0.400904 0.06989,0.104833 0.178181,0.178181 0.267269,0.267269"
           id="path921"
           inkscape:connector-curvature="0"
           sodipodi:nodetypes="cccccccc" />
        <path
           style="fill:none;fill-rule:evenodd;stroke:#00aad4;stroke-width:1;stroke-linecap:butt;stroke-linejoin:miter;stroke-miterlimit:4;stroke-dasharray:none;stroke-opacity:1"
           d="m 83.120822,20.041952 c -0.178179,0.244997 -0.31582,0.525386 -0.534538,0.734991 -0.321609,0.308208 -0.746128,0.495005 -1.069078,0.801808 -0.130186,0.123677 -0.134403,0.346932 -0.267272,0.467722 -0.125507,0.1141 -0.338079,0.09107 -0.467719,0.200452 -0.589929,0.497752 -1.117222,1.065355 -1.670437,1.603617 -0.270904,0.263584 -0.492156,0.585054 -0.801806,0.801809 -0.367202,0.25704 -0.842539,0.334561 -1.202714,0.601356 -0.254368,0.18842 -0.397455,0.492858 -0.601356,0.734991 -0.152505,0.1811 -0.300307,0.367125 -0.467722,0.53454"
           id="path923"
           inkscape:connector-curvature="0"
           sodipodi:nodetypes="ccsccccssc" />
      </g>
      <g
         transform="translate(23.118813,19.310206)"
         id="g931"
         style="stroke:#00aad4">
        <path
           sodipodi:nodetypes="cccccccc"
           inkscape:connector-curvature="0"
           id="path927"
           d="m 76.272042,19.925021 c 0.546963,0.771788 3.229092,2.099729 3.908814,2.722808 0.162534,0.148988 0.311817,0.311815 0.467723,0.467722 0.04454,0.04454 0.09178,0.08655 0.133636,0.133635 0.136421,0.153474 0.241977,0.337691 0.400904,0.467721 0.754034,0.305974 1.335735,2.547029 1.870885,2.672698 0.691853,0.593018 -0.107098,0.0398 0.133635,0.400904 0.06989,0.104833 0.178181,0.178181 0.267269,0.267269"
           style="fill:none;fill-rule:evenodd;stroke:#00aad4;stroke-width:1;stroke-linecap:butt;stroke-linejoin:miter;stroke-miterlimit:4;stroke-dasharray:none;stroke-opacity:1" />
        <path
           sodipodi:nodetypes="ccsccccssc"
           inkscape:connector-curvature="0"
           id="path929"
           d="m 83.120822,20.041952 c -0.178179,0.244997 -0.31582,0.525386 -0.534538,0.734991 -0.321609,0.308208 -0.746128,0.495005 -1.069078,0.801808 -0.130186,0.123677 -0.134403,0.346932 -0.267272,0.467722 -0.125507,0.1141 -0.338079,0.09107 -0.467719,0.200452 -0.589929,0.497752 -1.117222,1.065355 -1.670437,1.603617 -0.270904,0.263584 -0.492156,0.585054 -0.801806,0.801809 -0.367202,0.25704 -0.842539,0.334561 -1.202714,0.601356 -0.254368,0.18842 -0.397455,0.492858 -0.601356,0.734991 -0.152505,0.1811 -0.300307,0.367125 -0.467722,0.53454"
           style="fill:none;fill-rule:evenodd;stroke:#00aad4;stroke-width:1;stroke-linecap:butt;stroke-linejoin:miter;stroke-miterlimit:4;stroke-dasharray:none;stroke-opacity:1" />
      </g>
      <g
         id="g939"
         transform="translate(-19.377041,19.310206)"
         style="stroke:#00aad4">
        <path
           style="fill:none;fill-rule:evenodd;stroke:#00aad4;stroke-width:1;stroke-linecap:butt;stroke-linejoin:miter;stroke-miterlimit:4;stroke-dasharray:none;stroke-opacity:1"
           d="m 76.272042,19.925021 c 0.546963,0.771788 3.229092,2.099729 3.908814,2.722808 0.162534,0.148988 0.311817,0.311815 0.467723,0.467722 0.04454,0.04454 0.09178,0.08655 0.133636,0.133635 0.136421,0.153474 0.241977,0.337691 0.400904,0.467721 0.754034,0.305974 1.335735,2.547029 1.870885,2.672698 0.691853,0.593018 -0.107098,0.0398 0.133635,0.400904 0.06989,0.104833 0.178181,0.178181 0.267269,0.267269"
           id="path935"
           inkscape:connector-curvature="0"
           sodipodi:nodetypes="cccccccc" />
        <path
           style="fill:none;fill-rule:evenodd;stroke:#00aad4;stroke-width:1;stroke-linecap:butt;stroke-linejoin:miter;stroke-miterlimit:4;stroke-dasharray:none;stroke-opacity:1"
           d="m 83.120822,20.041952 c -0.178179,0.244997 -0.31582,0.525386 -0.534538,0.734991 -0.321609,0.308208 -0.746128,0.495005 -1.069078,0.801808 -0.130186,0.123677 -0.134403,0.346932 -0.267272,0.467722 -0.125507,0.1141 -0.338079,0.09107 -0.467719,0.200452 -0.589929,0.497752 -1.117222,1.065355 -1.670437,1.603617 -0.270904,0.263584 -0.492156,0.585054 -0.801806,0.801809 -0.367202,0.25704 -0.842539,0.334561 -1.202714,0.601356 -0.254368,0.18842 -0.397455,0.492858 -0.601356,0.734991 -0.152505,0.1811 -0.300307,0.367125 -0.467722,0.53454"
           id="path937"
           inkscape:connector-curvature="0"
           sodipodi:nodetypes="ccsccccssc" />
      </g>
      <g
         transform="translate(37.284099,19.310206)"
         id="g945"
         style="stroke:#00aad4">
        <path
           sodipodi:nodetypes="cccccccc"
           inkscape:connector-curvature="0"
           id="path941"
           d="m 76.272042,19.925021 c 0.546963,0.771788 3.229092,2.099729 3.908814,2.722808 0.162534,0.148988 0.311817,0.311815 0.467723,0.467722 0.04454,0.04454 0.09178,0.08655 0.133636,0.133635 0.136421,0.153474 0.241977,0.337691 0.400904,0.467721 0.754034,0.305974 1.335735,2.547029 1.870885,2.672698 0.691853,0.593018 -0.107098,0.0398 0.133635,0.400904 0.06989,0.104833 0.178181,0.178181 0.267269,0.267269"
           style="fill:none;fill-rule:evenodd;stroke:#00aad4;stroke-width:1;stroke-linecap:butt;stroke-linejoin:miter;stroke-miterlimit:4;stroke-dasharray:none;stroke-opacity:1" />
        <path
           sodipodi:nodetypes="ccsccccssc"
           inkscape:connector-curvature="0"
           id="path943"
           d="m 83.120822,20.041952 c -0.178179,0.244997 -0.31582,0.525386 -0.534538,0.734991 -0.321609,0.308208 -0.746128,0.495005 -1.069078,0.801808 -0.130186,0.123677 -0.134403,0.346932 -0.267272,0.467722 -0.125507,0.1141 -0.338079,0.09107 -0.467719,0.200452 -0.589929,0.497752 -1.117222,1.065355 -1.670437,1.603617 -0.270904,0.263584 -0.492156,0.585054 -0.801806,0.801809 -0.367202,0.25704 -0.842539,0.334561 -1.202714,0.601356 -0.254368,0.18842 -0.397455,0.492858 -0.601356,0.734991 -0.152505,0.1811 -0.300307,0.367125 -0.467722,0.53454"
           style="fill:none;fill-rule:evenodd;stroke:#00aad4;stroke-width:1;stroke-linecap:butt;stroke-linejoin:miter;stroke-miterlimit:4;stroke-dasharray:none;stroke-opacity:1" />
      </g>
    </g>
    <flowRoot
       xml:space="preserve"
       id="flowRoot951"
       style="font-style:normal;font-variant:normal;font-weight:normal;font-stretch:normal;font-size:10.66666698px;line-height:125%;font-family:Montserrat;-inkscape-font-specification:'Montserrat, Normal';font-variant-ligatures:normal;font-variant-caps:normal;font-variant-numeric:normal;text-align:start;letter-spacing:0px;word-spacing:0px;writing-mode:lr-tb;text-anchor:start;fill:#000000;fill-opacity:1;stroke:none;stroke-width:1px;stroke-linecap:butt;stroke-linejoin:miter;stroke-opacity:1"
       transform="scale(0.26458333)"><flowRegion
         id="flowRegion953"><rect
           id="rect955"
           width="136.87567"
           height="93.944183"
           x="0.50507629"
           y="240.65651" /></flowRegion><flowPara
         id="flowPara957"></flowPara></flowRoot>    <g
       aria-label="ARROW-Formation"
       style="font-style:normal;font-variant:normal;font-weight:normal;font-stretch:normal;font-size:2.82222223px;line-height:125%;font-family:Montserrat;-inkscape-font-specification:'Montserrat, Normal';font-variant-ligatures:normal;font-variant-caps:normal;font-variant-numeric:normal;text-align:start;letter-spacing:0px;word-spacing:0px;writing-mode:lr-tb;text-anchor:start;fill:#000000;fill-opacity:1;stroke:none;stroke-width:1px;stroke-linecap:butt;stroke-linejoin:miter;stroke-opacity:1"
       id="text1005">
      <path
         d="m 8.4437094,59.624316 0.6067778,1.742723 H 7.8228205 Z m 1.4746112,3.866445 H 10.680321 L 8.6977095,58.488372 H 8.1755983 l -1.9826112,5.002389 h 0.7690556 c 0.1552222,-0.409222 0.4021667,-1.001889 0.5926667,-1.453445 h 1.7709445 z"
         style="font-style:normal;font-variant:normal;font-weight:normal;font-stretch:normal;font-size:7.05555582px;font-family:'Code Bold';-inkscape-font-specification:'Code Bold, ';stroke-width:1px"
         id="path1036" />
      <path
         d="m 11.730827,61.324705 1.799167,2.166056 h 0.924278 L 12.894994,61.63515 c 0.846666,-0.148167 1.277055,-0.811389 1.277055,-1.509889 0,-0.783167 -0.536222,-1.573389 -1.608666,-1.573389 h -1.799167 v 4.938889 h 0.705555 v -4.219223 h 1.093612 c 0.599722,0 0.896055,0.430389 0.896055,0.853723 0,0.430389 -0.296333,0.860777 -0.896055,0.860777 h -0.832556 z"
         style="font-style:normal;font-variant:normal;font-weight:normal;font-stretch:normal;font-size:7.05555582px;font-family:'Code Bold';-inkscape-font-specification:'Code Bold, ';stroke-width:1px"
         id="path1038" />
      <path
         d="m 15.451531,61.324705 1.799166,2.166056 h 0.924278 L 16.615697,61.63515 c 0.846667,-0.148167 1.277056,-0.811389 1.277056,-1.509889 0,-0.783167 -0.536222,-1.573389 -1.608667,-1.573389 h -1.799167 v 4.938889 h 0.705556 v -4.219223 h 1.093611 c 0.599722,0 0.896056,0.430389 0.896056,0.853723 0,0.430389 -0.296334,0.860777 -0.896056,0.860777 h -0.832555 z"
         style="font-style:normal;font-variant:normal;font-weight:normal;font-stretch:normal;font-size:7.05555582px;font-family:'Code Bold';-inkscape-font-specification:'Code Bold, ';stroke-width:1px"
         id="path1040" />
      <path
         d="m 22.382512,61.021316 c 0,0.508 -0.204612,0.9525 -0.522112,1.277056 -0.331611,0.331611 -0.790222,0.536222 -1.277055,0.536222 -0.486833,0 -0.938389,-0.204611 -1.262945,-0.536222 -0.324555,-0.324556 -0.529166,-0.776111 -0.529166,-1.277056 0,-0.500944 0.204611,-0.9525 0.529166,-1.277055 0.324556,-0.331611 0.776112,-0.536223 1.262945,-0.536223 0.486833,0 0.945444,0.204612 1.277055,0.536223 0.3175,0.324555 0.522112,0.769055 0.522112,1.277055 z m -4.310945,0 c 0,0.6985 0.289278,1.326445 0.733778,1.785056 0.451555,0.465667 1.086555,0.747889 1.778,0.747889 0.6985,0 1.326444,-0.282222 1.785055,-0.747889 0.444501,-0.458611 0.733778,-1.086556 0.733778,-1.785056 0,-0.6985 -0.289277,-1.326444 -0.733778,-1.785055 -0.458611,-0.458611 -1.086555,-0.747889 -1.785055,-0.747889 -0.691445,0 -1.326445,0.289278 -1.778,0.747889 -0.4445,0.458611 -0.733778,1.086555 -0.733778,1.785055 z"
         style="font-style:normal;font-variant:normal;font-weight:normal;font-stretch:normal;font-size:7.05555582px;font-family:'Code Bold';-inkscape-font-specification:'Code Bold, ';stroke-width:1px"
         id="path1042" />
      <path
         d="m 26.93566,63.533094 h 0.529166 l 1.643945,-4.974167 h -0.747889 c -0.366889,1.121834 -0.797278,2.377723 -1.185333,3.556 l -0.804334,-2.300111 h -0.5715 l -0.811389,2.307167 -1.178277,-3.563056 h -0.740834 l 1.643945,4.974167 h 0.529166 c 0.254,-0.747889 0.557389,-1.5875 0.839612,-2.391833 z"
         style="font-style:normal;font-variant:normal;font-weight:normal;font-stretch:normal;font-size:7.05555582px;font-family:'Code Bold';-inkscape-font-specification:'Code Bold, ';stroke-width:1px"
         id="path1044" />
      <path
         d="m 29.633641,61.275564 h 1.856906 v 0.564996 h -1.856906 z"
         style="font-style:normal;font-variant:normal;font-weight:normal;font-stretch:normal;font-size:7.05555582px;font-family:'Code Bold';-inkscape-font-specification:'Code Bold, ';stroke-width:1px"
         id="path1046" />
      <path
         d="m 32.635781,61.38115 h 1.975555 v -0.719667 h -1.975555 v -1.389945 h 2.229555 V 58.558927 H 31.92317 v 4.931834 h 0.712611 z"
         style="font-style:normal;font-variant:normal;font-weight:normal;font-stretch:normal;font-size:7.05555582px;font-family:'Code Bold';-inkscape-font-specification:'Code Bold, ';stroke-width:1px"
         id="path1048" />
      <path
         d="m 39.304824,61.021316 c 0,0.508 -0.204611,0.9525 -0.522111,1.277056 -0.331611,0.331611 -0.790222,0.536222 -1.277055,0.536222 -0.486834,0 -0.938389,-0.204611 -1.262945,-0.536222 -0.324555,-0.324556 -0.529167,-0.776111 -0.529167,-1.277056 0,-0.500944 0.204612,-0.9525 0.529167,-1.277055 0.324556,-0.331611 0.776111,-0.536223 1.262945,-0.536223 0.486833,0 0.945444,0.204612 1.277055,0.536223 0.3175,0.324555 0.522111,0.769055 0.522111,1.277055 z m -4.310944,0 c 0,0.6985 0.289278,1.326445 0.733778,1.785056 0.451555,0.465667 1.086555,0.747889 1.778,0.747889 0.6985,0 1.326444,-0.282222 1.785055,-0.747889 0.4445,-0.458611 0.733778,-1.086556 0.733778,-1.785056 0,-0.6985 -0.289278,-1.326444 -0.733778,-1.785055 -0.458611,-0.458611 -1.086555,-0.747889 -1.785055,-0.747889 -0.691445,0 -1.326445,0.289278 -1.778,0.747889 -0.4445,0.458611 -0.733778,1.086555 -0.733778,1.785055 z"
         style="font-style:normal;font-variant:normal;font-weight:normal;font-stretch:normal;font-size:7.05555582px;font-family:'Code Bold';-inkscape-font-specification:'Code Bold, ';stroke-width:1px"
         id="path1050" />
      <path
         d="m 41.441335,61.324705 1.799167,2.166056 h 0.924277 L 42.605502,61.63515 c 0.846666,-0.148167 1.277055,-0.811389 1.277055,-1.509889 0,-0.783167 -0.536222,-1.573389 -1.608667,-1.573389 h -1.799166 v 4.938889 h 0.705555 v -4.219223 h 1.093611 c 0.599723,0 0.896056,0.430389 0.896056,0.853723 0,0.430389 -0.296333,0.860777 -0.896056,0.860777 h -0.832555 z"
         style="font-style:normal;font-variant:normal;font-weight:normal;font-stretch:normal;font-size:7.05555582px;font-family:'Code Bold';-inkscape-font-specification:'Code Bold, ';stroke-width:1px"
         id="path1052" />
      <path
         d="m 45.101294,60.012372 1.291167,1.919111 h 0.402166 l 1.291167,-1.919111 v 3.478389 h 0.705556 v -4.938889 h -0.564445 l -1.629833,2.398889 -1.629834,-2.398889 h -0.578555 v 4.938889 h 0.712611 z"
         style="font-style:normal;font-variant:normal;font-weight:normal;font-stretch:normal;font-size:7.05555582px;font-family:'Code Bold';-inkscape-font-specification:'Code Bold, ';stroke-width:1px"
         id="path1054" />
      <path
         d="m 51.273141,59.624316 0.606778,1.742723 h -1.227667 z m 1.474611,3.866445 h 0.762 L 51.527141,58.488372 H 51.00503 l -1.982611,5.002389 h 0.769055 c 0.155222,-0.409222 0.402167,-1.001889 0.592667,-1.453445 h 1.770944 z"
         style="font-style:normal;font-variant:normal;font-weight:normal;font-stretch:normal;font-size:7.05555582px;font-family:'Code Bold';-inkscape-font-specification:'Code Bold, ';stroke-width:1px"
         id="path1056" />
      <path
         d="m 54.962206,63.511927 v -4.296833 h 1.488722 v -0.663222 h -3.697111 v 0.663222 h 1.495778 v 4.296833 z"
         style="font-style:normal;font-variant:normal;font-weight:normal;font-stretch:normal;font-size:7.05555582px;font-family:'Code Bold';-inkscape-font-specification:'Code Bold, ';stroke-width:1px"
         id="path1058" />
      <path
         d="m 59.242722,58.558927 h -2.547055 v 0.705556 h 0.917222 v 3.513667 h -0.917222 v 0.712611 h 2.547055 V 62.77815 H 58.3255 v -3.513667 h 0.917222 z"
         style="font-style:normal;font-variant:normal;font-weight:normal;font-stretch:normal;font-size:7.05555582px;font-family:'Code Bold';-inkscape-font-specification:'Code Bold, ';stroke-width:1px"
         id="path1060" />
      <path
         d="m 63.516957,61.021316 c 0,0.508 -0.204611,0.9525 -0.522111,1.277056 -0.331611,0.331611 -0.790223,0.536222 -1.277056,0.536222 -0.486833,0 -0.938389,-0.204611 -1.262944,-0.536222 -0.324556,-0.324556 -0.529167,-0.776111 -0.529167,-1.277056 0,-0.500944 0.204611,-0.9525 0.529167,-1.277055 0.324555,-0.331611 0.776111,-0.536223 1.262944,-0.536223 0.486833,0 0.945445,0.204612 1.277056,0.536223 0.3175,0.324555 0.522111,0.769055 0.522111,1.277055 z m -4.310945,0 c 0,0.6985 0.289278,1.326445 0.733778,1.785056 0.451556,0.465667 1.086556,0.747889 1.778,0.747889 0.6985,0 1.326445,-0.282222 1.785056,-0.747889 0.4445,-0.458611 0.733777,-1.086556 0.733777,-1.785056 0,-0.6985 -0.289277,-1.326444 -0.733777,-1.785055 -0.458611,-0.458611 -1.086556,-0.747889 -1.785056,-0.747889 -0.691444,0 -1.326444,0.289278 -1.778,0.747889 -0.4445,0.458611 -0.733778,1.086555 -0.733778,1.785055 z"
         style="font-style:normal;font-variant:normal;font-weight:normal;font-stretch:normal;font-size:7.05555582px;font-family:'Code Bold';-inkscape-font-specification:'Code Bold, ';stroke-width:1px"
         id="path1062" />
      <path
         d="m 65.392412,63.490761 v -3.450167 l 2.384778,3.450167 h 0.564444 v -4.938889 h -0.705556 v 3.478389 l -2.405944,-3.478389 -0.550333,-0.0071 v 4.945945 z"
         style="font-style:normal;font-variant:normal;font-weight:normal;font-stretch:normal;font-size:7.05555582px;font-family:'Code Bold';-inkscape-font-specification:'Code Bold, ';stroke-width:1px"
         id="path1064" />
    </g>
    <g
       aria-label="LINE-Formation"
       style="font-style:normal;font-variant:normal;font-weight:normal;font-stretch:normal;font-size:2.82222223px;line-height:125%;font-family:Montserrat;-inkscape-font-specification:'Montserrat, Normal';font-variant-ligatures:normal;font-variant-caps:normal;font-variant-numeric:normal;text-align:start;letter-spacing:0px;word-spacing:0px;writing-mode:lr-tb;text-anchor:start;fill:#000000;fill-opacity:1;stroke:none;stroke-width:1px;stroke-linecap:butt;stroke-linejoin:miter;stroke-opacity:1"
       id="text995">
      <path
         d="m 123.356,58.558927 h -0.71261 v 4.931834 h 3.03389 V 62.77815 H 123.356 Z"
         style="font-style:normal;font-variant:normal;font-weight:normal;font-stretch:normal;font-size:7.05555582px;font-family:'Code Bold';-inkscape-font-specification:'Code Bold, ';stroke-width:1px"
         id="path1007" />
      <path
         d="m 128.37746,58.558927 h -2.54705 v 0.705556 h 0.91722 v 3.513667 h -0.91722 v 0.712611 h 2.54705 V 62.77815 h -0.91722 v -3.513667 h 0.91722 z"
         style="font-style:normal;font-variant:normal;font-weight:normal;font-stretch:normal;font-size:7.05555582px;font-family:'Code Bold';-inkscape-font-specification:'Code Bold, ';stroke-width:1px"
         id="path1009" />
      <path
         d="m 129.44053,63.490761 v -3.450167 l 2.38478,3.450167 h 0.56445 v -4.938889 h -0.70556 v 3.478389 l -2.40594,-3.478389 -0.55034,-0.0071 v 4.945945 z"
         style="font-style:normal;font-variant:normal;font-weight:normal;font-stretch:normal;font-size:7.05555582px;font-family:'Code Bold';-inkscape-font-specification:'Code Bold, ';stroke-width:1px"
         id="path1011" />
      <path
         d="m 133.56726,61.38115 h 2.23661 v -0.719667 h -2.23661 v -1.389945 h 2.286 v -0.712611 h -3.00566 v 4.931834 h 3.01272 V 62.77815 h -2.29306 z"
         style="font-style:normal;font-variant:normal;font-weight:normal;font-stretch:normal;font-size:7.05555582px;font-family:'Code Bold';-inkscape-font-specification:'Code Bold, ';stroke-width:1px"
         id="path1013" />
      <path
         d="m 136.41473,61.275564 h 1.85691 v 0.564996 h -1.85691 z"
         style="font-style:normal;font-variant:normal;font-weight:normal;font-stretch:normal;font-size:7.05555582px;font-family:'Code Bold';-inkscape-font-specification:'Code Bold, ';stroke-width:1px"
         id="path1015" />
      <path
         d="m 139.41688,61.38115 h 1.97555 v -0.719667 h -1.97555 v -1.389945 h 2.22955 v -0.712611 h -2.94216 v 4.931834 h 0.71261 z"
         style="font-style:normal;font-variant:normal;font-weight:normal;font-stretch:normal;font-size:7.05555582px;font-family:'Code Bold';-inkscape-font-specification:'Code Bold, ';stroke-width:1px"
         id="path1017" />
      <path
         d="m 146.08592,61.021316 c 0,0.508 -0.20461,0.9525 -0.52211,1.277056 -0.33161,0.331611 -0.79022,0.536222 -1.27706,0.536222 -0.48683,0 -0.93839,-0.204611 -1.26294,-0.536222 -0.32456,-0.324556 -0.52917,-0.776111 -0.52917,-1.277056 0,-0.500944 0.20461,-0.9525 0.52917,-1.277055 0.32455,-0.331611 0.77611,-0.536223 1.26294,-0.536223 0.48684,0 0.94545,0.204612 1.27706,0.536223 0.3175,0.324555 0.52211,0.769055 0.52211,1.277055 z m -4.31094,0 c 0,0.6985 0.28927,1.326445 0.73377,1.785056 0.45156,0.465667 1.08656,0.747889 1.778,0.747889 0.6985,0 1.32645,-0.282222 1.78506,-0.747889 0.4445,-0.458611 0.73378,-1.086556 0.73378,-1.785056 0,-0.6985 -0.28928,-1.326444 -0.73378,-1.785055 -0.45861,-0.458611 -1.08656,-0.747889 -1.78506,-0.747889 -0.69144,0 -1.32644,0.289278 -1.778,0.747889 -0.4445,0.458611 -0.73377,1.086555 -0.73377,1.785055 z"
         style="font-style:normal;font-variant:normal;font-weight:normal;font-stretch:normal;font-size:7.05555582px;font-family:'Code Bold';-inkscape-font-specification:'Code Bold, ';stroke-width:1px"
         id="path1019" />
      <path
         d="m 148.22243,61.324705 1.79917,2.166056 h 0.92427 L 149.3866,61.63515 c 0.84666,-0.148167 1.27705,-0.811389 1.27705,-1.509889 0,-0.783167 -0.53622,-1.573389 -1.60866,-1.573389 h -1.79917 v 4.938889 h 0.70555 v -4.219223 h 1.09362 c 0.59972,0 0.89605,0.430389 0.89605,0.853723 0,0.430389 -0.29633,0.860777 -0.89605,0.860777 h -0.83256 z"
         style="font-style:normal;font-variant:normal;font-weight:normal;font-stretch:normal;font-size:7.05555582px;font-family:'Code Bold';-inkscape-font-specification:'Code Bold, ';stroke-width:1px"
         id="path1021" />
      <path
         d="m 151.88239,60.012372 1.29117,1.919111 h 0.40216 l 1.29117,-1.919111 v 3.478389 h 0.70556 V 58.551872 H 155.008 l -1.62983,2.398889 -1.62984,-2.398889 h -0.57855 v 4.938889 h 0.71261 z"
         style="font-style:normal;font-variant:normal;font-weight:normal;font-stretch:normal;font-size:7.05555582px;font-family:'Code Bold';-inkscape-font-specification:'Code Bold, ';stroke-width:1px"
         id="path1023" />
      <path
         d="m 158.05424,59.624316 0.60677,1.742723 h -1.22766 z m 1.47461,3.866445 h 0.762 l -1.98261,-5.002389 h -0.52211 l -1.98262,5.002389 h 0.76906 c 0.15522,-0.409222 0.40217,-1.001889 0.59267,-1.453445 h 1.77094 z"
         style="font-style:normal;font-variant:normal;font-weight:normal;font-stretch:normal;font-size:7.05555582px;font-family:'Code Bold';-inkscape-font-specification:'Code Bold, ';stroke-width:1px"
         id="path1025" />
      <path
         d="m 161.7433,63.511927 v -4.296833 h 1.48872 v -0.663222 h -3.69711 v 0.663222 h 1.49578 v 4.296833 z"
         style="font-style:normal;font-variant:normal;font-weight:normal;font-stretch:normal;font-size:7.05555582px;font-family:'Code Bold';-inkscape-font-specification:'Code Bold, ';stroke-width:1px"
         id="path1027" />
      <path
         d="m 166.02382,58.558927 h -2.54706 v 0.705556 h 0.91722 v 3.513667 h -0.91722 v 0.712611 h 2.54706 V 62.77815 h -0.91722 v -3.513667 h 0.91722 z"
         style="font-style:normal;font-variant:normal;font-weight:normal;font-stretch:normal;font-size:7.05555582px;font-family:'Code Bold';-inkscape-font-specification:'Code Bold, ';stroke-width:1px"
         id="path1029" />
      <path
         d="m 170.29805,61.021316 c 0,0.508 -0.20461,0.9525 -0.52211,1.277056 -0.33161,0.331611 -0.79022,0.536222 -1.27705,0.536222 -0.48684,0 -0.93839,-0.204611 -1.26295,-0.536222 -0.32455,-0.324556 -0.52917,-0.776111 -0.52917,-1.277056 0,-0.500944 0.20462,-0.9525 0.52917,-1.277055 0.32456,-0.331611 0.77611,-0.536223 1.26295,-0.536223 0.48683,0 0.94544,0.204612 1.27705,0.536223 0.3175,0.324555 0.52211,0.769055 0.52211,1.277055 z m -4.31094,0 c 0,0.6985 0.28928,1.326445 0.73378,1.785056 0.45155,0.465667 1.08655,0.747889 1.778,0.747889 0.6985,0 1.32644,-0.282222 1.78505,-0.747889 0.4445,-0.458611 0.73378,-1.086556 0.73378,-1.785056 0,-0.6985 -0.28928,-1.326444 -0.73378,-1.785055 -0.45861,-0.458611 -1.08655,-0.747889 -1.78505,-0.747889 -0.69145,0 -1.32645,0.289278 -1.778,0.747889 -0.4445,0.458611 -0.73378,1.086555 -0.73378,1.785055 z"
         style="font-style:normal;font-variant:normal;font-weight:normal;font-stretch:normal;font-size:7.05555582px;font-family:'Code Bold';-inkscape-font-specification:'Code Bold, ';stroke-width:1px"
         id="path1031" />
      <path
         d="m 172.17351,63.490761 v -3.450167 l 2.38478,3.450167 h 0.56444 v -4.938889 h -0.70556 v 3.478389 l -2.40594,-3.478389 -0.55033,-0.0071 v 4.945945 z"
         style="font-style:normal;font-variant:normal;font-weight:normal;font-stretch:normal;font-size:7.05555582px;font-family:'Code Bold';-inkscape-font-specification:'Code Bold, ';stroke-width:1px"
         id="path1033" />
    </g>
  </g>
</svg>
